# xmcd
#
# Track frame offsets:
#	150
#	11677
#	26858
#	39183
#	53875
#	66516
#	82871
#	100859
#	113319
#	129066
#	146157
#	155962
#
# Disc length: 2263 seconds
#
# Revision: 1
# Processed by: cddbd v1.5.2PL0 Copyright (c) Steve Scherf et al.
# Submitted via: audiograbber 1.83.01
#
DISCID=9708d50c
DTITLE=Die Flöckchen - Weihnachts...Flöckchen
DYEAR=2010
DGENRE=Weihnachten
TTITLE0=Die Flöckchen - www.hillije-mann.de
TTITLE1=Die Flöckchen - kinderauge
TTITLE2=Die Flöckchen - nikolaus
TTITLE3=Die Flöckchen - schnieflöckche falle en dr naach
TTITLE4=Die Flöckchen - sms zum weihnachtsmann
TTITLE5=Die Flöckchen - nur noch en kind sin
TTITLE6=Die Flöckchen - nur mit dir
TTITLE7=Die Flöckchen - rumms do kütt d'r weihnachtsmann
TTITLE8=Die Flöckchen - wenn em hätz de stäne stonn
TTITLE9=Die Flöckchen - last christmas
TTITLE10=Die Flöckchen - wonderful world
TTITLE11=Die Flöckchen - white christmas
EXTD=
EXTT0=
EXTT1=
EXTT2=
EXTT3=
EXTT4=
EXTT5=
EXTT6=
EXTT7=
EXTT8=
EXTT9=
EXTT10=
EXTT11=
PLAYORDER=
